<svg id="Content" xmlns="http://www.w3.org/2000/svg" viewBox="0 0 485 356.5"><defs><style>.cls-1,.cls-11,.cls-16,.cls-5,.cls-6{fill:#fff;}.cls-1,.cls-4{stroke:#000;stroke-linejoin:round;}.cls-1,.cls-4,.cls-5,.cls-6{stroke-linecap:round;}.cls-1{stroke-width:15px;}.cls-2{fill:#7fb2ff;}.cls-3{fill:#7e7e84;opacity:0.3;}.cls-4,.cls-6{stroke-width:5px;}.cls-14,.cls-5,.cls-6{stroke:#314d51;}.cls-14,.cls-15,.cls-5,.cls-6{stroke-miterlimit:10;}.cls-5{stroke-width:3px;}.cls-15,.cls-7{fill:#314d51;}.cls-8{fill:#578476;}.cls-9{fill:#46665a;}.cls-10{fill:#fff6c7;}.cls-12{fill:#ff4e00;}.cls-13{fill:#ffa440;}.cls-14{fill:none;stroke-width:2px;}.cls-15{stroke:#fff;}.cls-16{opacity:0.65;}.cls-17{fill:#bde9f4;}</style></defs><title>frontendicon</title><rect class="cls-1" x="7.5" y="7.5" width="470" height="246"/><rect class="cls-2" x="10.5" y="7.5" width="467" height="242"/><ellipse class="cls-3" cx="251.5" cy="328" rx="210" ry="28.5"/><polygon class="cls-4" points="335.47 328.5 291.3 253 203.83 253.5 161.1 328.5 335.47 328.5"/><line class="cls-5" x1="120.14" y1="71.78" x2="120.14" y2="60.5"/><line class="cls-6" x1="122.37" y1="86.3" x2="122.37" y2="85.45"/><path class="cls-7" d="M1166,704.17c5.11,0,10.22,2.49,10.22,5s0,12.43,2.56,19.89a2.48,2.48,0,0,1-2.56,2.48c-2.55-2.48-7.66-17.4-12.78-17.4S1166,704.17,1166,704.17Z" transform="translate(-1037.5 -589.5)"/><path class="cls-7" d="M1147.5,704.17c-5.11,0-10.22,2.49-10.22,5s0,12.43-2.55,19.89a2.48,2.48,0,0,0,2.55,2.48c2.56-2.48,7.67-17.4,12.78-17.4S1147.5,704.17,1147.5,704.17Z" transform="translate(-1037.5 -589.5)"/><path class="cls-8" d="M1164.79,716.13c13-15.6,10.63-44.71-7.13-55.36-17.76,10.65-20.14,39.76-7.13,55.36Z" transform="translate(-1037.5 -589.5)"/><path class="cls-9" d="M1157.66,660.77c-17.76,10.65-20.14,39.76-7.13,55.36h7.13Z" transform="translate(-1037.5 -589.5)"/><path class="cls-7" d="M1162.85,664.8q-.7-.69-1.47-1.35a17.94,17.94,0,0,1-7.44,0c-.51.44-1,.89-1.48,1.35a23.56,23.56,0,0,0,10.39,0Z" transform="translate(-1037.5 -589.5)"/><path class="cls-7" d="M1143.89,703.25c.28,1,.59,2,.95,2.9a126.94,126.94,0,0,0,14.36.75c4,0,7.77-.15,11.16-.44.37-1,.71-2,1-3-3.63.22-7.77.35-12.16.35C1153.48,703.83,1148.19,703.61,1143.89,703.25Z" transform="translate(-1037.5 -589.5)"/><rect class="cls-10" x="112.47" y="126.63" width="15.38" height="56.9"/><path class="cls-7" d="M1157.66,679.25a3.11,3.11,0,1,1,3.1-3.1A3.1,3.1,0,0,1,1157.66,679.25Z" transform="translate(-1037.5 -589.5)"/><path class="cls-11" d="M1157.66,674a2.11,2.11,0,1,1-2.1,2.11,2.11,2.11,0,0,1,2.1-2.11m0-2a4.11,4.11,0,1,0,4.1,4.11,4.1,4.1,0,0,0-4.1-4.11Z" transform="translate(-1037.5 -589.5)"/><path class="cls-12" d="M1150.48,716.13c-11.11,4.27,5.81,13.67,7.18,32,2.22-17.6,17.26-19.65,7.18-32Z" transform="translate(-1037.5 -589.5)"/><path class="cls-13" d="M1150.48,716.13c-3.42,6.15,6.15,5.81,6,14.53,1.71-8.38,11.11-7.18,8.38-14.53Z" transform="translate(-1037.5 -589.5)"/><path class="cls-7" d="M1154.58,700.75a3.08,3.08,0,0,1,6.15,0c0,1.7-3.07,30.76-3.07,30.76S1154.58,702.45,1154.58,700.75Z" transform="translate(-1037.5 -589.5)"/><line class="cls-14" x1="117.08" y1="95.87" x2="123.23" y2="95.87"/><line class="cls-14" x1="117.08" y1="102.03" x2="123.23" y2="102.03"/><path class="cls-15" d="M1157.74,660.85" transform="translate(-1037.5 -589.5)"/><circle class="cls-16" cx="121.7" cy="85.28" r="0.68"/><path class="cls-10" d="M1259.25,825.18a10.93,10.93,0,0,0-16.33-5.58,5,5,0,0,0-5-4.7,5.17,5.17,0,0,0-2,.4,6.64,6.64,0,0,0-6.32-8.77,6.57,6.57,0,0,0-2.4.45c0-.15,0-.3,0-.45a10.94,10.94,0,0,0-17.67-8.62,4.27,4.27,0,0,0-4.2-3.51h-.07a6.11,6.11,0,0,0,.07-.86,6,6,0,0,0-6-6l-.39,0a8.58,8.58,0,0,0-6.62-11,10.76,10.76,0,0,0-10.07-7h0c0-.14,0-.28,0-.43a7.26,7.26,0,0,0-12.36-5.17,3.76,3.76,0,0,0-6.76.05,8,8,0,0,0-14.38,1.37,3.93,3.93,0,0,0-6.49,3,6,6,0,0,0-6,6c0,.16,0,.32,0,.47a13.59,13.59,0,0,0-3.52-.47,13.42,13.42,0,0,0-13.42,13.42,13.28,13.28,0,0,0,.54,3.75,5.1,5.1,0,0,0-6,4.44A17.1,17.1,0,0,0,1090.07,810a13.37,13.37,0,0,0-3-.34,13.15,13.15,0,0,0-13.15,13.15v.33a7.69,7.69,0,0,0-9.72,5.64,7.52,7.52,0,0,0,2.2,14.71h.35l2.38,6.51h115.52l42.55-2.74,25.46-2.05,2.61-3.36a8.25,8.25,0,0,0,2.18.28,8.54,8.54,0,0,0,1.79-16.89Z" transform="translate(-1037.5 -589.5)"/><circle class="cls-10" cx="102.05" cy="156.71" r="1.71"/><circle class="cls-10" cx="133.49" cy="148.33" r="0.68"/><circle class="cls-10" cx="135.03" cy="160.81" r="2.22"/><circle class="cls-10" cx="106.92" cy="167.39" r="0.6"/><circle class="cls-10" cx="105.29" cy="145.77" r="0.51"/><circle class="cls-10" cx="88.03" cy="169.35" r="1.37"/><circle class="cls-10" cx="131.18" cy="141.58" r="0.43"/><circle class="cls-10" cx="150.06" cy="171.92" r="1.2"/><polygon class="cls-10" points="144.43 153.46 144.43 153.46 144.43 153.46 144.43 153.46 144.43 153.46"/><path class="cls-13" d="M1159.49,843c.21-.16.43-.33.64-.51l.18.51h48.47a2.09,2.09,0,0,1,.08-.23l.39.23h20.52c-.81-5.2-4.59-9.13-9.14-9.13a8.08,8.08,0,0,0-4.7,1.54,5.06,5.06,0,0,0-4.61-3.8,4.22,4.22,0,0,0-2.46.79c-1.76-5.87-6.42-10.06-11.9-10.06-5,0-9.38,3.54-11.41,8.68a5.48,5.48,0,0,0-3.2-1.06,5.35,5.35,0,0,0-2.89.86c-1.92-3.73-5.34-6.22-9.24-6.22a9.34,9.34,0,0,0-4.87,1.39c-1.33-7-6.56-12.31-12.82-12.31-5,0-9.31,3.34-11.55,8.26a16,16,0,0,0-7.84-2.08,16.86,16.86,0,0,0-12,5.28,8.92,8.92,0,0,0-6.69-3.22c-5.33,0-9.65,5.15-9.74,11.54h0c-4.69,0-8.59,4.12-9.4,9.54Z" transform="translate(-1037.5 -589.5)"/><rect class="cls-9" x="248.5" y="7.5" width="229" height="242"/><rect x="19.5" y="249.5" width="229" height="11"/><rect class="cls-17" x="288.5" y="44.5" width="64" height="11" rx="5.5" ry="5.5"/><rect class="cls-13" x="279.5" y="23.5" width="145" height="14" rx="7" ry="7"/><rect class="cls-17" x="355.5" y="44.5" width="35" height="11" rx="5.5" ry="5.5"/><rect class="cls-17" x="392.5" y="44.5" width="64" height="11" rx="5.5" ry="5.5"/><rect class="cls-17" x="288.5" y="60.5" width="105" height="11" rx="5.5" ry="5.5"/><rect class="cls-17" x="396.5" y="60.5" width="60" height="11" rx="5.5" ry="5.5"/><rect class="cls-17" x="288.5" y="77.5" width="81" height="11" rx="5.5" ry="5.5"/><rect class="cls-17" x="372.5" y="77.5" width="85" height="11" rx="5.5" ry="5.5"/><rect class="cls-10" x="279.5" y="98.5" width="93" height="11" rx="5.5" ry="5.5"/><rect class="cls-17" x="288.5" y="114.5" width="105" height="11" rx="5.5" ry="5.5"/><rect class="cls-7" x="279.5" y="134.5" width="144" height="16" rx="8" ry="8"/><rect class="cls-13" x="279.5" y="156.5" width="83" height="14" rx="7" ry="7"/><rect class="cls-17" x="291.5" y="175.5" width="105" height="11" rx="5.5" ry="5.5"/><rect class="cls-17" x="398.5" y="175.5" width="58" height="11" rx="5.5" ry="5.5"/><rect class="cls-17" x="307.5" y="191.5" width="105" height="11" rx="5.5" ry="5.5"/><rect class="cls-17" x="320.5" y="206.5" width="105" height="11" rx="5.5" ry="5.5"/><rect class="cls-17" x="415.5" y="191.5" width="41" height="11" rx="5.5" ry="5.5"/></svg>