<svg xmlns="http://www.w3.org/2000/svg" xmlns:xlink="http://www.w3.org/1999/xlink" viewBox="0 0 2560 1440"><defs><style>.cls-1,.cls-12,.cls-3,.cls-4{fill:#fff;}.cls-2{mask:url(#mask);}.cls-11,.cls-3,.cls-4{stroke:#314d51;stroke-miterlimit:10;}.cls-3,.cls-4{stroke-linecap:round;}.cls-3{stroke-width:3px;}.cls-4{stroke-width:5px;}.cls-5{fill:#314d51;}.cls-6{fill:#578476;}.cls-7{fill:#46665a;}.cls-8{fill:#fff6c7;}.cls-9{fill:#ff4e00;}.cls-10{fill:#ffa440;}.cls-11{fill:none;stroke-width:7px;}.cls-12{opacity:0.65;}</style><mask id="mask" x="0" y="0" width="2560" height="1560" maskUnits="userSpaceOnUse"><rect class="cls-1" width="2560" height="1440"/></mask></defs><title>nocolorrocket</title><g class="cls-2"><g id="Content"><line class="cls-3" x1="639.92" y1="425" x2="639.92" y2="359"/><line class="cls-4" x1="652.92" y1="510" x2="652.92" y2="505"/><path class="cls-5" d="M689.05,676c29.9,0,59.81,14.55,59.81,29.09s0,72.73,14.95,116.36c0,14.55-14.95,14.55-14.95,14.55-15-14.55-44.86-101.82-74.77-101.82S689.05,676,689.05,676Z"/><path class="cls-5" d="M580.58,676c-29.91,0-59.81,14.55-59.81,29.09s0,72.73-15,116.36c0,14.55,15,14.55,15,14.55,15-14.55,44.86-101.82,74.76-101.82S580.58,676,580.58,676Z"/><path class="cls-6" d="M681.73,746c76.1-91.29,62.2-261.64-41.73-324-103.93,62.36-117.83,232.71-41.73,324Z"/><path class="cls-7" d="M640,422c-103.93,62.36-117.83,232.71-41.73,324H640Z"/><path class="cls-5" d="M670.4,445.64q-4.17-4.12-8.64-7.93a104.53,104.53,0,0,1-43.52,0q-4.47,3.81-8.64,7.93a139.2,139.2,0,0,0,60.8,0Z"/><path class="cls-5" d="M559.43,670.59q2.45,8.63,5.53,17A742.35,742.35,0,0,0,649,692c23.37,0,45.51-.93,65.32-2.58,2.18-5.72,4.14-11.56,5.86-17.48C698.92,673.25,674.7,674,649,674,615.55,674,584.61,672.74,559.43,670.59Z"/><rect class="cls-8" x="595" y="746" width="90" height="333"/><circle class="cls-5" cx="640" cy="512" r="21.5"/><path class="cls-1" d="M640,493a19,19,0,1,1-19,19,19,19,0,0,1,19-19m0-5a24,24,0,1,0,24,24,24,24,0,0,0-24-24Z"/><path class="cls-9" d="M598,746c-65,25,34,80,42,187,13-103,101-115,42-187Z"/><path class="cls-10" d="M598,746c-20,36,36,34,35,85,10-49,65-42,49-85Z"/><path class="cls-5" d="M622,656a18,18,0,0,1,36,0c0,9.94-18,180-18,180S622,665.94,622,656Z"/><line class="cls-11" x1="622" y1="566" x2="658" y2="566"/><line class="cls-11" x1="622" y1="602" x2="658" y2="602"/><circle class="cls-12" cx="649" cy="504" r="4"/><path class="cls-8" d="M1234.49,1384.11a64,64,0,0,0-95.57-32.63,29.5,29.5,0,0,0-40.92-25.15,39,39,0,0,0-51.07-48.7c0-.88.07-1.75.07-2.63a64,64,0,0,0-103.4-50.42A25,25,0,0,0,919,1204h-.36a36,36,0,0,0,.36-5,35,35,0,0,0-35-35c-.78,0-1.55,0-2.32.09A50,50,0,0,0,843,1099.82,63,63,0,0,0,784,1059h-.08c.05-.83.08-1.66.08-2.5a42.49,42.49,0,0,0-72.3-30.29,22,22,0,0,0-39.56.33,47,47,0,0,0-84.17,8A23,23,0,0,0,550,1052a35,35,0,0,0-35,35c0,.93,0,1.85.12,2.76a78.5,78.5,0,0,0-96,97.69,29.94,29.94,0,0,0-34.91,26A100,100,0,0,0,244.49,1295,77,77,0,0,0,150,1370c0,.65,0,1.29.05,1.93a45,45,0,0,0-56.9,33A44,44,0,0,0,106,1491c.7,0,1.39,0,2.08,0L122,1529H798l249-16,149-12,15.27-19.64a50,50,0,1,0,23.22-97.25Z"/><path class="cls-10" d="M1008.5,1409a54.19,54.19,0,0,0-27.49,7.45,29,29,0,0,0-41.41-14.62,74,74,0,0,0-136.41-6.68,36.47,36.47,0,0,0-35.64-1A63.49,63.49,0,0,0,685,1370.74a77,77,0,0,0-142.61-19.67,109.59,109.59,0,0,0-116.27,15.52A57,57,0,0,0,330,1407h0c-30.93,0-56,25.3-56,56.5s25.07,56.5,56,56.5c30.44,0,55.19-24.51,56-55,.35,0,.69,0,1,0l.95,0a109.51,109.51,0,0,0,217.12-.15c1.63.1,3.27.17,4.93.17a76.62,76.62,0,0,0,44.45-14.15,63.49,63.49,0,0,0,114,8.44,36.5,36.5,0,0,0,34.37-1.23,74,74,0,0,0,136.77-5.89A28.91,28.91,0,0,0,954,1456h.53a54.49,54.49,0,1,0,54-47Z"/><circle class="cls-8" cx="534" cy="922" r="10"/><circle class="cls-8" cx="718" cy="873" r="4"/><circle class="cls-8" cx="727" cy="946" r="13"/><circle class="cls-8" cx="562.5" cy="984.5" r="3.5"/><circle class="cls-8" cx="553" cy="858" r="3"/><circle class="cls-8" cx="452" cy="996" r="8"/><circle class="cls-8" cx="704.5" cy="833.5" r="2.5"/><circle class="cls-8" cx="815" cy="1011" r="7"/></g></g></svg>