<svg id="Layer_1" data-name="Layer 1" xmlns="http://www.w3.org/2000/svg" xmlns:xlink="http://www.w3.org/1999/xlink" viewBox="0 0 1920 720"><defs><style>.cls-1{fill:none;}.cls-2{clip-path:url(#clip-path);}.cls-3{fill:url(#linear-gradient);}.cls-4{fill:#6a979b;}.cls-5{fill:#577e81;}.cls-6{fill:#b10051;}.cls-7{fill:#ed0c6e;}.cls-8{fill:#e8e2d5;}.cls-9{fill:url(#New_Gradient_Swatch_copy_81);}.cls-10{fill:#a3dad4;}.cls-11{fill:url(#New_Gradient_Swatch_copy_81-2);}.cls-12{fill:url(#New_Gradient_Swatch_copy_81-3);}.cls-13{fill:url(#New_Gradient_Swatch_copy_94);}.cls-14{fill:url(#New_Gradient_Swatch_copy_83);}.cls-15{fill:#45474a;}.cls-16{fill:url(#New_Gradient_Swatch_copy_79);}.cls-17{fill:#b4dfd4;}.cls-18{fill:url(#New_Gradient_Swatch_copy_78);}.cls-19{fill:#fdb714;}.cls-20{fill:url(#New_Gradient_Swatch_copy_251);}.cls-21{fill:url(#New_Gradient_Swatch_copy_248);}.cls-22{fill:#363342;}.cls-23{fill:#f99b1c;}.cls-24{fill:url(#New_Gradient_Swatch_copy_83-2);}.cls-25{fill:#c37015;}.cls-26{fill:#726d91;}.cls-27{fill:#5c5876;}.cls-28{fill:url(#New_Gradient_Swatch_copy_82);}.cls-29{fill:url(#New_Gradient_Swatch_copy_80);}.cls-30{fill:url(#New_Gradient_Swatch_copy_81-4);}.cls-31{fill:url(#New_Gradient_Swatch_copy_80-2);}.cls-32{fill:url(#New_Gradient_Swatch_copy_79-2);}.cls-33{fill:url(#New_Gradient_Swatch_copy_78-2);}.cls-34{fill:#f3d8ac;}.cls-35{fill:url(#New_Gradient_Swatch_copy_131);}.cls-36{fill:url(#New_Gradient_Swatch_copy_130);}.cls-37{fill:#f26522;}.cls-38{fill:#a73a11;}.cls-39{fill:url(#New_Gradient_Swatch_copy_150);}.cls-40{fill:url(#New_Gradient_Swatch_copy_149);}.cls-41{fill:#c1a466;}.cls-42{fill:url(#New_Gradient_Swatch_copy_267);}.cls-43{fill:#ce3e1d;}.cls-44{fill:url(#New_Gradient_Swatch_copy_153);}.cls-45{fill:url(#New_Gradient_Swatch_copy_153-2);}.cls-46{fill:url(#New_Gradient_Swatch_copy_153-3);}.cls-47{fill:url(#New_Gradient_Swatch_copy_153-4);}.cls-48{fill:url(#New_Gradient_Swatch_copy_153-5);}.cls-49{fill:url(#New_Gradient_Swatch_copy_153-6);}</style><clipPath id="clip-path"><rect class="cls-1" width="1920" height="720"/></clipPath><linearGradient id="linear-gradient" y1="362" x2="1920" y2="362" gradientTransform="scale(1 0.99)" gradientUnits="userSpaceOnUse"><stop offset="0.29" stop-color="#63c6bf"/><stop offset="0.61" stop-color="#61c4be"/><stop offset="0.73" stop-color="#5abeb9"/><stop offset="0.81" stop-color="#4fb2b0"/><stop offset="0.87" stop-color="#3ea2a3"/><stop offset="0.93" stop-color="#288d93"/><stop offset="0.98" stop-color="#0d7480"/><stop offset="1" stop-color="#006776"/></linearGradient><radialGradient id="New_Gradient_Swatch_copy_81" cx="342.57" cy="402.87" r="4.68" gradientTransform="translate(329.83 -733.93) scale(3.29 2.99)" gradientUnits="userSpaceOnUse"><stop offset="0" stop-color="#72b9be"/><stop offset="0.33" stop-color="#70b8bd"/><stop offset="0.49" stop-color="#68b4b9"/><stop offset="0.62" stop-color="#5badb3"/><stop offset="0.72" stop-color="#49a3ab"/><stop offset="0.82" stop-color="#3196a0"/><stop offset="0.9" stop-color="#138692"/><stop offset="0.95" stop-color="#007c89"/></radialGradient><radialGradient id="New_Gradient_Swatch_copy_81-2" cx="355" cy="402.87" r="4.68" xlink:href="#New_Gradient_Swatch_copy_81"/><radialGradient id="New_Gradient_Swatch_copy_81-3" cx="367.43" cy="402.87" r="4.68" xlink:href="#New_Gradient_Swatch_copy_81"/><linearGradient id="New_Gradient_Swatch_copy_94" x1="1214.85" y1="424.29" x2="1214.85" y2="437.69" gradientTransform="matrix(-1, 0, 0, 1, 2695.38, 0)" gradientUnits="userSpaceOnUse"><stop offset="0.19" stop-color="#6a979b"/><stop offset="0.44" stop-color="#699599"/><stop offset="0.58" stop-color="#658c90"/><stop offset="0.7" stop-color="#5f7f82"/><stop offset="0.81" stop-color="#566b6e"/><stop offset="0.9" stop-color="#4a5255"/><stop offset="0.93" stop-color="#45474a"/></linearGradient><linearGradient id="New_Gradient_Swatch_copy_83" x1="902.63" y1="395.45" x2="1193.75" y2="395.45" gradientTransform="matrix(-1, 0, 0, 1, 2695.38, 0)" gradientUnits="userSpaceOnUse"><stop offset="0" stop-color="#f5f6cb" stop-opacity="0"/><stop offset="0.09" stop-color="#f5f6cb" stop-opacity="0.04"/><stop offset="0.24" stop-color="#f5f6cb" stop-opacity="0.16"/><stop offset="0.44" stop-color="#f5f6cb" stop-opacity="0.34"/><stop offset="0.68" stop-color="#f5f6cb" stop-opacity="0.6"/><stop offset="0.94" stop-color="#f5f6cb" stop-opacity="0.93"/><stop offset="1" stop-color="#f5f6cb"/></linearGradient><radialGradient id="New_Gradient_Swatch_copy_79" cx="323.18" cy="402.41" r="12.84" gradientTransform="translate(329.83 -733.93) scale(3.29 2.99)" gradientUnits="userSpaceOnUse"><stop offset="0" stop-color="#72b9be"/><stop offset="0.22" stop-color="#6fb7bc"/><stop offset="0.4" stop-color="#64b2b8"/><stop offset="0.57" stop-color="#53a8b0"/><stop offset="0.73" stop-color="#3b9ba4"/><stop offset="0.89" stop-color="#1b8b96"/><stop offset="1" stop-color="#007c89"/></radialGradient><radialGradient id="New_Gradient_Swatch_copy_78" cx="345.49" cy="388.4" r="10.87" gradientTransform="translate(329.83 -733.93) scale(3.29 2.99)" gradientUnits="userSpaceOnUse"><stop offset="0.36" stop-color="#72b9be"/><stop offset="0.58" stop-color="#70b8bd"/><stop offset="0.69" stop-color="#68b4b9"/><stop offset="0.77" stop-color="#5badb3"/><stop offset="0.84" stop-color="#49a3ab"/><stop offset="0.9" stop-color="#3196a0"/><stop offset="0.96" stop-color="#138692"/><stop offset="0.99" stop-color="#007c89"/></radialGradient><radialGradient id="New_Gradient_Swatch_copy_251" cx="146.35" cy="182.11" r="295.28" gradientTransform="translate(-25.49 -53.48) scale(1.28 1.24)" gradientUnits="userSpaceOnUse"><stop offset="0.67" stop-color="#f5881f" stop-opacity="0"/><stop offset="0.76" stop-color="#f5881f" stop-opacity="0.01"/><stop offset="0.8" stop-color="#f5881f" stop-opacity="0.04"/><stop offset="0.83" stop-color="#f5881f" stop-opacity="0.09"/><stop offset="0.85" stop-color="#f5881f" stop-opacity="0.17"/><stop offset="0.88" stop-color="#f5881f" stop-opacity="0.26"/><stop offset="0.9" stop-color="#f5881f" stop-opacity="0.38"/><stop offset="0.91" stop-color="#f5881f" stop-opacity="0.52"/><stop offset="0.93" stop-color="#f5881f" stop-opacity="0.69"/><stop offset="0.95" stop-color="#f5881f" stop-opacity="0.87"/><stop offset="0.96" stop-color="#f5881f"/></radialGradient><radialGradient id="New_Gradient_Swatch_copy_248" cx="164.47" cy="257.22" r="333.22" gradientTransform="translate(-57.01 -61.68) scale(1.3 1.19)" gradientUnits="userSpaceOnUse"><stop offset="0.55" stop-color="#fdbc11" stop-opacity="0"/><stop offset="0.71" stop-color="#fdbc11" stop-opacity="0.01"/><stop offset="0.77" stop-color="#fdbc11" stop-opacity="0.03"/><stop offset="0.81" stop-color="#fdbc11" stop-opacity="0.08"/><stop offset="0.84" stop-color="#fdbc11" stop-opacity="0.15"/><stop offset="0.87" stop-color="#fdbc11" stop-opacity="0.23"/><stop offset="0.89" stop-color="#fdbc11" stop-opacity="0.34"/><stop offset="0.91" stop-color="#fdbc11" stop-opacity="0.47"/><stop offset="0.93" stop-color="#fdbc11" stop-opacity="0.62"/><stop offset="0.95" stop-color="#fdbc11" stop-opacity="0.79"/><stop offset="0.97" stop-color="#fdbc11" stop-opacity="0.97"/><stop offset="0.97" stop-color="#fdbc11"/></radialGradient><linearGradient id="New_Gradient_Swatch_copy_83-2" x1="1365.53" y1="2735.54" x2="1689.32" y2="2735.54" gradientTransform="matrix(1, 0, 0, -1, -1261.8, 3043.44)" xlink:href="#New_Gradient_Swatch_copy_83"/><radialGradient id="New_Gradient_Swatch_copy_82" cx="1532.19" cy="228.65" r="23.08" gradientTransform="matrix(-5.09, 0, 0, 5.36, 8297.67, -926.4)" gradientUnits="userSpaceOnUse"><stop offset="0.52" stop-color="#3c394d"/><stop offset="0.55" stop-color="#434056"/><stop offset="0.65" stop-color="#585470"/><stop offset="0.76" stop-color="#666282"/><stop offset="0.88" stop-color="#6f6a8d"/><stop offset="1" stop-color="#726d91"/></radialGradient><linearGradient id="New_Gradient_Swatch_copy_80" x1="390.23" y1="213.62" x2="390.23" y2="266.99" gradientUnits="userSpaceOnUse"><stop offset="0.19" stop-color="#726d91"/><stop offset="0.51" stop-color="#706b8f"/><stop offset="0.65" stop-color="#6b6688"/><stop offset="0.76" stop-color="#615c7b"/><stop offset="0.84" stop-color="#534f6a"/><stop offset="0.92" stop-color="#413d53"/><stop offset="0.93" stop-color="#3c394d"/></linearGradient><radialGradient id="New_Gradient_Swatch_copy_81-4" cx="461.2" cy="232.14" r="6.49" gradientTransform="matrix(-5.09, 0, 0, 5.36, 2827.23, -926.4)" xlink:href="#New_Gradient_Swatch_copy_81"/><linearGradient id="New_Gradient_Swatch_copy_80-2" x1="1772.27" y1="240.8" x2="1772.27" y2="259.58" gradientTransform="translate(-1261.8)" xlink:href="#New_Gradient_Swatch_copy_80"/><radialGradient id="New_Gradient_Swatch_copy_79-2" cx="439.61" cy="232.09" r="12.84" gradientTransform="matrix(-5.09, 0, 0, 5.36, 2827.23, -926.4)" xlink:href="#New_Gradient_Swatch_copy_79"/><radialGradient id="New_Gradient_Swatch_copy_78-2" cx="454.93" cy="218.85" r="6.88" gradientTransform="matrix(-5.09, 0, 0, 5.36, 2827.23, -926.4)" xlink:href="#New_Gradient_Swatch_copy_78"/><radialGradient id="New_Gradient_Swatch_copy_131" cx="1599.79" cy="834.17" r="234.36" gradientTransform="translate(-3690.73 -1711.79) scale(3.48 3.36)" xlink:href="#New_Gradient_Swatch_copy_83"/><radialGradient id="New_Gradient_Swatch_copy_130" cx="762.79" cy="414.89" r="143.26" gradientTransform="translate(-813.6 -270.46) scale(2.08 1.84)" gradientUnits="userSpaceOnUse"><stop offset="0.3" stop-color="#f3d8ac" stop-opacity="0"/><stop offset="0.37" stop-color="#f3d8ac" stop-opacity="0.15"/><stop offset="0.5" stop-color="#f3d8ac" stop-opacity="0.4"/><stop offset="0.62" stop-color="#f3d8ac" stop-opacity="0.62"/><stop offset="0.74" stop-color="#f3d8ac" stop-opacity="0.78"/><stop offset="0.84" stop-color="#f3d8ac" stop-opacity="0.9"/><stop offset="0.93" stop-color="#f3d8ac" stop-opacity="0.97"/><stop offset="1" stop-color="#f3d8ac"/></radialGradient><radialGradient id="New_Gradient_Swatch_copy_150" cx="-286.05" cy="494.93" r="37.1" gradientTransform="matrix(-2.86, 0, 0, 3.14, -56.47, -912.85)" gradientUnits="userSpaceOnUse"><stop offset="0.72" stop-color="#74c8b9"/><stop offset="0.8" stop-color="#72c7b8"/><stop offset="0.83" stop-color="#6ac2b5"/><stop offset="0.86" stop-color="#5db9b0"/><stop offset="0.88" stop-color="#4bada8"/><stop offset="0.9" stop-color="#339d9e"/><stop offset="0.92" stop-color="#158a92"/><stop offset="0.93" stop-color="#007c89"/></radialGradient><radialGradient id="New_Gradient_Swatch_copy_149" cx="-286.01" cy="494.59" r="35.08" gradientTransform="matrix(-2.86, 0, 0, 3.14, -56.47, -912.85)" gradientUnits="userSpaceOnUse"><stop offset="0.36" stop-color="#74c8b9"/><stop offset="0.55" stop-color="#72c7b8"/><stop offset="0.65" stop-color="#6ac2b5"/><stop offset="0.72" stop-color="#5db9b0"/><stop offset="0.78" stop-color="#4bada8"/><stop offset="0.84" stop-color="#339d9e"/><stop offset="0.89" stop-color="#158a92"/><stop offset="0.92" stop-color="#007c89"/></radialGradient><linearGradient id="New_Gradient_Swatch_copy_267" x1="759.44" y1="676.12" x2="759.44" y2="625.32" gradientUnits="userSpaceOnUse"><stop offset="0.29" stop-color="#8aab3f"/><stop offset="0.46" stop-color="#88a93e"/><stop offset="0.56" stop-color="#81a03b"/><stop offset="0.64" stop-color="#769237"/><stop offset="0.71" stop-color="#657e30"/><stop offset="0.77" stop-color="#506527"/><stop offset="0.83" stop-color="#36461d"/><stop offset="0.84" stop-color="#2d3b19"/></linearGradient><radialGradient id="New_Gradient_Swatch_copy_153" cx="-430.79" cy="738.3" r="19.12" gradientTransform="translate(919.45 345.2) scale(0.55 0.41)" gradientUnits="userSpaceOnUse"><stop offset="0" stop-color="#74c8b9"/><stop offset="0.33" stop-color="#72c7b8"/><stop offset="0.49" stop-color="#6ac2b5"/><stop offset="0.62" stop-color="#5db9b0"/><stop offset="0.72" stop-color="#4bada8"/><stop offset="0.81" stop-color="#339d9e"/><stop offset="0.9" stop-color="#158a92"/><stop offset="0.95" stop-color="#007c89"/></radialGradient><radialGradient id="New_Gradient_Swatch_copy_153-2" cx="-374.55" cy="738.3" r="19.13" xlink:href="#New_Gradient_Swatch_copy_153"/><radialGradient id="New_Gradient_Swatch_copy_153-3" cx="-318.31" cy="738.3" r="19.13" xlink:href="#New_Gradient_Swatch_copy_153"/><radialGradient id="New_Gradient_Swatch_copy_153-4" cx="-262.07" cy="738.3" r="19.13" xlink:href="#New_Gradient_Swatch_copy_153"/><radialGradient id="New_Gradient_Swatch_copy_153-5" cx="-205.83" cy="738.3" r="19.13" xlink:href="#New_Gradient_Swatch_copy_153"/><radialGradient id="New_Gradient_Swatch_copy_153-6" cx="-149.59" cy="738.3" r="19.13" xlink:href="#New_Gradient_Swatch_copy_153"/></defs><title>bronground</title><g class="cls-2"><rect class="cls-3" width="1920" height="720"/><path class="cls-4" d="M1420.58,500.6c7.57,13.14,32.36,22.77,61.79,22.77s54.22-9.63,61.79-22.77Z"/><path class="cls-5" d="M1488,523.25c26.91-1.14,49.09-10.36,56.17-22.65h-32.25C1507,510.74,1497.71,518.06,1488,523.25Z"/><path class="cls-6" d="M1543.66,439.94H1415.14c-45.52,0-45.52,60.66,0,60.66h128.52C1588.75,500.6,1588.75,439.94,1543.66,439.94Z"/><path class="cls-7" d="M1540.2,444.42H1416.27c-38.8,0-38.8,51.71,0,51.71H1540.2C1578.63,496.13,1578.63,444.42,1540.2,444.42Z"/><path class="cls-6" d="M1456.32,453.41c-11,0-20,8.16-20,18.21s9,18.21,20,18.21,20-8.17,20-18.21S1467.35,453.41,1456.32,453.41Z"/><path class="cls-8" d="M1456.32,456.44c-9.2,0-16.68,6.81-16.68,15.18s7.48,15.18,16.68,15.18S1473,480,1473,471.62,1465.52,456.44,1456.32,456.44Z"/><path class="cls-9" d="M1456.32,458.68c-7.85,0-14.21,5.79-14.21,12.93s6.36,12.92,14.21,12.92,14.19-5.79,14.19-12.92S1464.17,458.68,1456.32,458.68Z"/><path class="cls-10" d="M1458.49,460.52a10.37,10.37,0,0,1,7.55,9.67c0,5.67-5,10.26-11.27,10.26a11.23,11.23,0,0,1-10.62-6.87c1,5.26,6.08,9.25,12.16,9.25,6.83,0,12.36-5,12.36-11.25C1468.66,466.05,1464.27,461.47,1458.49,460.52Z"/><path class="cls-6" d="M1497.21,453.41c-11,0-20,8.16-20,18.21s9,18.21,20,18.21,20-8.17,20-18.21S1508.25,453.41,1497.21,453.41Z"/><path class="cls-8" d="M1497.21,456.44c-9.2,0-16.68,6.81-16.68,15.18s7.48,15.18,16.68,15.18,16.67-6.81,16.67-15.18S1506.4,456.44,1497.21,456.44Z"/><path class="cls-11" d="M1497.21,458.68c-7.85,0-14.21,5.79-14.21,12.93s6.36,12.92,14.21,12.92,14.2-5.79,14.2-12.92S1505,458.68,1497.21,458.68Z"/><path class="cls-10" d="M1499.38,460.52a10.37,10.37,0,0,1,7.55,9.67c0,5.67-5,10.26-11.28,10.26a11.24,11.24,0,0,1-10.63-6.87c1,5.26,6.08,9.25,12.16,9.25,6.83,0,12.36-5,12.36-11.25C1509.54,466.05,1505.16,461.47,1499.38,460.52Z"/><path class="cls-6" d="M1538.09,453.41c-11,0-20,8.16-20,18.21s9,18.21,20,18.21,20-8.17,20-18.21S1549.13,453.41,1538.09,453.41Z"/><path class="cls-8" d="M1538.09,456.44c-9.2,0-16.67,6.81-16.67,15.18s7.48,15.18,16.67,15.18,16.67-6.81,16.67-15.18S1547.29,456.44,1538.09,456.44Z"/><ellipse class="cls-12" cx="1538.09" cy="471.61" rx="14.2" ry="12.93"/><path class="cls-10" d="M1540.26,460.52a10.37,10.37,0,0,1,7.55,9.67c0,5.67-5,10.26-11.28,10.26a11.23,11.23,0,0,1-10.63-6.87c1,5.26,6.08,9.25,12.16,9.25,6.83,0,12.36-5,12.36-11.25C1550.43,466.05,1546,461.47,1540.26,460.52Z"/><path class="cls-13" d="M1549.39,431.14a4.6,4.6,0,0,1-4.79,4.37H1416.1c-6.12,0-5.68-8.73,0-8.73h128.5a4.6,4.6,0,0,1,4.79,4.36Z"/><polygon class="cls-7" points="1573.31 398.89 1587.32 398.89 1582.13 392 1573.31 392 1573.31 398.89"/><polygon class="cls-14" points="1797 398.89 1587.32 398.89 1582.13 392 1797 392 1797 398.89"/><polygon class="cls-6" points="1584.82 395.56 1573.31 395.56 1573.31 398.89 1587.32 398.89 1584.82 395.56"/><path class="cls-4" d="M1562.27,381.78h-5.43a6.16,6.16,0,0,1-12.16,0h-17.84c-6.09,0-11,4.5-11,10v7.25c0,5.54,4.94,10,11,10h17.84a6.16,6.16,0,0,1,12.16,0h5.43c6.1,0,11-4.5,11-10v-7.25C1573.31,386.28,1568.37,381.78,1562.27,381.78Z"/><path class="cls-5" d="M1562.27,401.71h-5.43a6.16,6.16,0,0,0-12.16,0h-17.84c-6.06,0-11-4.46-11-10v7.32c0,5.54,4.94,10,11,10h17.84a6.16,6.16,0,0,1,12.16,0h5.43Z"/><path class="cls-5" d="M1550.76,387a5.89,5.89,0,0,1-6.08-5.19v27.33a6.16,6.16,0,0,1,12.16,0V381.78A5.89,5.89,0,0,1,1550.76,387Z"/><path class="cls-15" d="M1550.76,396.46a5.89,5.89,0,0,0-6.08,5.18v7.47a6.16,6.16,0,0,1,12.16,0v-7.47A5.89,5.89,0,0,0,1550.76,396.46Z"/><path class="cls-7" d="M1573.31,399.07v-7.25c0-5.53-4.94-10-11-10v27.33C1568.37,409.11,1573.31,404.61,1573.31,399.07Z"/><path class="cls-6" d="M1562.27,401.78v7.33c6.1,0,11-4.5,11-10v-3.14A12.94,12.94,0,0,1,1562.27,401.78Z"/><path class="cls-7" d="M1541,411.14a4.36,4.36,0,0,1-4.55,4.14h-3.52a4.36,4.36,0,0,1-4.55-4.14v-32a4.36,4.36,0,0,1,4.55-4.15h3.52a4.37,4.37,0,0,1,4.55,4.15Z"/><path class="cls-15" d="M1536.41,415.28h-3.52a4.85,4.85,0,0,1-2.91-.95c-.91,3.66-3.89,5.36-8.32,5.36h-5c-7.76,0-7.67,7.09-7.67,7.09h30.17V414.46A4.87,4.87,0,0,1,1536.41,415.28Z"/><path class="cls-6" d="M1536.41,404.71h-3.52a4.36,4.36,0,0,1-4.55-4.14v10.58a4.36,4.36,0,0,0,4.55,4.14h3.52a4.36,4.36,0,0,0,4.55-4.14V400.56A4.36,4.36,0,0,1,1536.41,404.71Z"/><path class="cls-6" d="M1419.21,446.92h-26.8a29.63,29.63,0,0,0,0,46.71h26.8c8,0,14.52-5.93,14.52-13.21V460.14C1433.73,452.85,1427.22,446.92,1419.21,446.92Z"/><path class="cls-8" d="M1419.21,449.56h-29.8a29.73,29.73,0,0,0,0,41.43h29.8c6.41,0,11.63-4.74,11.63-10.57V460.14C1430.83,454.3,1425.62,449.56,1419.21,449.56Z"/><path class="cls-16" d="M1419.21,451.74h-31.75a29.83,29.83,0,0,0,0,37.07h31.75c5.09,0,9.22-3.76,9.22-8.4V460.14C1428.43,455.5,1424.3,451.74,1419.21,451.74Z"/><path class="cls-17" d="M1390.73,455.39h-3a30,30,0,0,0-3.28,21.23h3A30.54,30.54,0,0,1,1390.73,455.39Zm-2.45,24.1h-3a29.31,29.31,0,0,0,2.51,5.68h3A30,30,0,0,1,1388.28,479.49Z"/><path class="cls-15" d="M1545.68,500.61H1420.26a2,2,0,1,0,0,3.92h125.42A2,2,0,1,0,1545.68,500.61Z"/><rect class="cls-15" x="1416.67" y="435.51" width="127.86" height="4.43"/><path class="cls-15" d="M1498,422.81h-62.85c-1.4,0-4,2.5-4,4H1502C1502,425.32,1499.43,422.81,1498,422.81Z"/><path class="cls-18" d="M1466.6,399.14c-15.54,0-28.43,10.23-31.05,23.68h62.12C1495,409.37,1482.14,399.14,1466.6,399.14Z"/><path class="cls-10" d="M1466.22,402.1a29.52,29.52,0,0,0-21.31,8.82,28.15,28.15,0,0,1,18.7-6.93,27.82,27.82,0,0,1,20.57,8.77h5A29.23,29.23,0,0,0,1466.22,402.1Zm24.8,13.38h-4.68a22.71,22.71,0,0,1,1.78,3h4.47A25.75,25.75,0,0,0,1491,415.48Z"/><ellipse class="cls-19" cx="164.88" cy="230.55" rx="321.12" ry="304.45"/><ellipse class="cls-20" cx="164" cy="232" rx="300" ry="291"/><ellipse class="cls-21" cx="156.5" cy="227.5" rx="373.5" ry="343.5"/><rect class="cls-15" x="398.91" y="303.34" width="13.9" height="9.86"/><rect class="cls-22" x="410.63" y="298.01" width="17.45" height="20.53"/><polygon class="cls-23" points="347.27 303.7 332.53 303.7 337.99 312.1 347.27 312.1 347.27 303.7"/><polygon class="cls-24" points="99 303.7 332.53 303.7 337.99 312.1 99 312.1 99 303.7"/><polygon class="cls-25" points="335.17 307.76 347.27 307.76 347.27 303.7 332.53 303.7 335.17 307.76"/><path class="cls-26" d="M358.89,324.52h5.72a6.4,6.4,0,0,1,12.8,0h18.77c6.41,0,11.6-5.47,11.6-12.21v-8.82c0-6.75-5.19-12.22-11.6-12.22H377.41a6.4,6.4,0,0,1-12.8,0h-5.72c-6.42,0-11.62,5.47-11.62,12.22v8.82C347.27,319.05,352.47,324.52,358.89,324.52Z"/><path class="cls-27" d="M358.89,300.28h5.72a6.4,6.4,0,0,0,12.8,0h18.77c6.38,0,11.56,5.41,11.6,12.13v-8.92c0-6.75-5.19-12.22-11.6-12.22H377.41a6.4,6.4,0,0,1-12.8,0h-5.72Z"/><path class="cls-27" d="M371,318.21a6.57,6.57,0,0,1,6.4,6.31V291.27a6.4,6.4,0,0,1-12.8,0v33.25A6.56,6.56,0,0,1,371,318.21Z"/><path class="cls-15" d="M371,306.67a6.56,6.56,0,0,0,6.4-6.3v-9.09a6.4,6.4,0,0,1-12.8,0v9.09A6.55,6.55,0,0,0,371,306.67Z"/><path class="cls-23" d="M347.27,303.49v8.82c0,6.74,5.2,12.21,11.62,12.21V291.27C352.47,291.27,347.27,296.74,347.27,303.49Z"/><path class="cls-25" d="M358.89,300.19v-8.92c-6.42,0-11.62,5.47-11.62,12.22v3.83A13.24,13.24,0,0,1,358.89,300.19Z"/><path class="cls-23" d="M381.3,288.81a4.93,4.93,0,0,1,4.8-5h3.7a4.93,4.93,0,0,1,4.8,5v38.92a4.92,4.92,0,0,1-4.8,5h-3.7a4.92,4.92,0,0,1-4.8-5Z"/><path class="cls-25" d="M386.1,296.63h3.7a4.92,4.92,0,0,1,4.8,5V288.81a4.93,4.93,0,0,0-4.8-5h-3.7a4.93,4.93,0,0,0-4.8,5v12.86A4.92,4.92,0,0,1,386.1,296.63Z"/><path class="cls-28" d="M480.07,389H571.7c0-9.79-7.55-17.72-16.85-17.72L415.58,315.94c0,60.68,24.31,73.06,64.49,73.06Z"/><path class="cls-29" d="M373.76,222v38.6h32.95C406.71,243.79,392.11,222,373.76,222Z"/><path class="cls-25" d="M467.94,262.73h86.2c70.47,0,70.47,108.58,0,108.58h-86.2c-34.8,0-52.25-27-52.35-54.06,0-6.27,0-18.68,0-24,0-9.32-3.72-13.39-12.7-13.39h-20.5c-5.5,0-8.62-4.1-8.62-9.46v-7.62Z"/><path class="cls-23" d="M473.3,270.75h79.09c60.08,0,60.08,92.56,0,92.56H473.3c-29.87,0-44.74-23.33-44.62-46.57.06-11.21,0-46,0-46Z"/><path class="cls-25" d="M479.14,277.21c21,0,38,17.94,38,40s-17.07,40-38,40-38-18-38-40S458.19,277.21,479.14,277.21Z"/><path class="cls-8" d="M479.14,281.29c18.84,0,34.16,16.11,34.16,35.93S498,353.15,479.14,353.15,445,337,445,317.22,460.32,281.29,479.14,281.29Z"/><path class="cls-30" d="M479.14,285.15c16.83,0,30.48,14.36,30.48,32.07S496,349.28,479.14,349.28s-30.45-14.36-30.45-32.06S462.33,285.15,479.14,285.15Z"/><path class="cls-10" d="M474.5,289.72a25.36,25.36,0,0,0-16.19,24c0,14.06,10.82,25.45,24.18,25.45,10.55,0,19.49-7.12,22.79-17-2.22,13-13,23-26.08,23-14.64,0-26.52-12.51-26.52-27.92C452.68,303.44,462.11,292.06,474.5,289.72Z"/><path class="cls-31" d="M463.23,250.4a6,6,0,0,0,5.81,6.12h83.32c7.42,0,6.89-12.23,0-12.23H469a6,6,0,0,0-5.81,6.11Z"/><path class="cls-25" d="M547.86,275.21h41.48c23.52,20.9,23.52,62.72,0,83.62H547.86c-12.41,0-22.48-10.61-22.48-23.65V298.88C525.37,285.83,535.45,275.21,547.86,275.21Z"/><path class="cls-8" d="M547.86,279.94H594c17.35,20.3,17.35,53.86,0,74.17H547.86c-9.92,0-18-8.5-18-18.92V298.88C529.86,288.44,537.93,279.94,547.86,279.94Z"/><path class="cls-32" d="M547.86,283.85H597c13.32,19.15,13.32,47.22,0,66.36H547.86c-7.89,0-14.28-6.73-14.28-15V298.88C533.58,290.57,540,283.85,547.86,283.85Z"/><path class="cls-17" d="M596.89,328.39h4.71a61,61,0,0,0-5.08-38h-4.59A62.23,62.23,0,0,1,596.89,328.39Zm-5,15.3h4.59a56.21,56.21,0,0,0,3.89-10.17h-4.69A58.14,58.14,0,0,1,591.94,343.68Z"/><rect class="cls-15" x="373.76" y="256.52" width="177.99" height="6.22"/><path class="cls-15" d="M479.7,239.8h61.53c1.37,0,3.9,2.83,3.9,4.49H475.82C475.82,242.63,478.33,239.8,479.7,239.8Z"/><path class="cls-33" d="M510.48,213c15.2,0,27.83,11.57,30.4,26.8H480.07C482.63,224.57,495.26,213,510.48,213Z"/><path class="cls-10" d="M488.43,228.42h4.85a25.34,25.34,0,0,1,38.44-2.09,26.83,26.83,0,0,0-43.28,2.09ZM485,235h4.38a26.72,26.72,0,0,1,1.74-3.46h-4.58A31.9,31.9,0,0,0,485,235Z"/><path class="cls-34" d="M376,658.18H353.13a93.32,93.32,0,0,0,12.34-46.59c0-48.74-36.38-88.25-81.24-88.25a75.91,75.91,0,0,0-38.46,10.5C226.67,506.64,196.59,489,162.65,489c-47.21,0-87.08,34-100.08,80.68a68,68,0,0,0-42.37-15A67,67,0,0,0,0,557.82V720H376C414.57,720,417.4,658.18,376,658.18Z"/><path class="cls-35" d="M1545.7,634.56h46.71A86.33,86.33,0,0,1,1582.8,595c0-39.61,26.79-73.18,63.85-84.81a55.89,55.89,0,0,1-.39-6.53c0-32.61,27.42-59.05,61.23-59.05a62,62,0,0,1,48.08,22.5A143.9,143.9,0,0,1,1920,468.53V720H1545.7C1485.65,720,1481.26,634.56,1545.7,634.56Z"/><path class="cls-34" d="M1907.79,164c-31.4,0-57.91,18.68-66.56,44.32a51.45,51.45,0,0,0-28.18-8.25c-26.51,0-48,19.29-48,43.08a38.91,38.91,0,0,0,2.56,13.8h-12.35c-27.74,0-26.25,34,0,34h165V165A77.23,77.23,0,0,0,1907.79,164Z"/><path class="cls-36" d="M523.79,398.17h6.41a37.11,37.11,0,0,1-5.33-19.09c0-22.7,20.84-41.09,46.55-41.09,18,0,33.52,9,41.29,22.1a34.93,34.93,0,0,1,16.17-3.89c17.56,0,31.8,12.57,31.8,28.06a25.43,25.43,0,0,1-4.19,13.91h9.85c20.11,0,18.74,24.38,0,24.38H523.79C504.62,422.56,503.53,398.17,523.79,398.17Z"/><path class="cls-34" d="M1373.06,135.63h18.67a32.1,32.1,0,0,1-5.16-17.39c0-19.21,17.19-34.77,38.4-34.77a39.71,39.71,0,0,1,31,14.33c13.12-17.39,35.18-28.81,60.2-28.81,40.21,0,72.81,29.52,72.81,65.91s-32.59,65.9-72.81,65.9H1373.06c-19.88,0-36-14.59-36-32.6S1353.17,135.63,1373.06,135.63Z"/><path class="cls-37" d="M858.28,619.63H661.54c-8.53,0-12.73,7.35-12.73,14.71H871C871,627,866.8,619.63,858.28,619.63Z"/><path class="cls-38" d="M858.28,619.63h-61c8.53,0,12.72,7.35,12.72,14.71h61C871,627,866.8,619.63,858.28,619.63Z"/><path class="cls-39" d="M759.89,535c46.14,0,84.45,36.54,92.21,84.63H667.71C675.48,571.54,713.78,535,759.89,535Z"/><path class="cls-40" d="M759.89,539.62c43.62,0,79.84,34.55,87.18,80H672.75C680.09,574.17,716.3,539.62,759.89,539.62Z"/><path class="cls-10" d="M693.05,583.66h14.7c14.59-19.16,36.5-31.32,61-31.32,21.61,0,41.19,9.45,55.52,24.77-15.39-19.3-38-31.53-63.25-31.53C733.08,545.58,708.3,560.6,693.05,583.66Zm-10.27,20.65h13.29a85.57,85.57,0,0,1,5.28-10.92h-13.9A104.43,104.43,0,0,0,682.78,604.31Z"/><rect class="cls-34" x="664.87" y="613.3" width="190.07" height="6.32"/><rect class="cls-41" x="796.24" y="613.3" width="58.71" height="6.32"/><path class="cls-42" d="M642.71,634c0,21,52.26,38,116.73,38s116.73-17,116.73-38Z"/><path class="cls-43" d="M680.52,638c-7.46,0-13.52,4.49-13.52,10s6.07,10,13.52,10S694,653.51,694,648,688,638,680.52,638Z"/><path class="cls-34" d="M680.52,639.51c-6.33,0-11.48,3.81-11.48,8.49s5.15,8.49,11.48,8.49S692,652.69,692,648,686.85,639.51,680.52,639.51Z"/><ellipse class="cls-44" cx="680.52" cy="648" rx="9.78" ry="7.23"/><path class="cls-10" d="M682,641.8c3,.78,5.2,2.91,5.2,5.41,0,3.17-3.47,5.74-7.76,5.74-3.39,0-6.26-1.6-7.32-3.85.72,2.95,4.19,5.18,8.37,5.18,4.7,0,8.52-2.82,8.52-6.29C689,644.89,686,642.32,682,641.8Z"/><path class="cls-43" d="M711.71,638c-7.45,0-13.52,4.49-13.52,10s6.07,10,13.52,10,13.52-4.49,13.52-10S719.17,638,711.71,638Z"/><path class="cls-34" d="M711.71,639.51c-6.33,0-11.48,3.81-11.48,8.49s5.15,8.49,11.48,8.49,11.48-3.81,11.48-8.49S718,639.51,711.71,639.51Z"/><ellipse class="cls-45" cx="711.71" cy="648" rx="9.78" ry="7.23"/><path class="cls-10" d="M713.21,641.8c3,.78,5.2,2.91,5.2,5.41,0,3.17-3.47,5.74-7.77,5.74-3.39,0-6.26-1.6-7.32-3.85.72,2.95,4.19,5.18,8.38,5.18,4.7,0,8.51-2.82,8.51-6.29C720.21,644.89,717.19,642.32,713.21,641.8Z"/><path class="cls-43" d="M742.9,638c-7.45,0-13.52,4.49-13.52,10s6.07,10,13.52,10,13.52-4.49,13.52-10S750.36,638,742.9,638Z"/><path class="cls-34" d="M742.9,639.51c-6.33,0-11.48,3.81-11.48,8.49s5.15,8.49,11.48,8.49,11.48-3.81,11.48-8.49S749.24,639.51,742.9,639.51Z"/><ellipse class="cls-46" cx="742.9" cy="648" rx="9.78" ry="7.23"/><path class="cls-10" d="M744.4,641.8c3,.78,5.2,2.91,5.2,5.41,0,3.17-3.47,5.74-7.76,5.74-3.39,0-6.26-1.6-7.32-3.85.72,2.95,4.19,5.18,8.38,5.18,4.7,0,8.51-2.82,8.51-6.29C751.4,644.89,748.38,642.32,744.4,641.8Z"/><path class="cls-43" d="M774.1,638c-7.45,0-13.52,4.49-13.52,10s6.07,10,13.52,10,13.52-4.49,13.52-10S781.55,638,774.1,638Z"/><path class="cls-34" d="M774.1,639.51c-6.33,0-11.48,3.81-11.48,8.49s5.15,8.49,11.48,8.49,11.48-3.81,11.48-8.49S780.43,639.51,774.1,639.51Z"/><ellipse class="cls-47" cx="774.1" cy="648" rx="9.78" ry="7.23"/><path class="cls-10" d="M775.59,641.8c3,.78,5.2,2.91,5.2,5.41,0,3.17-3.48,5.74-7.77,5.74-3.39,0-6.26-1.6-7.32-3.85.72,2.95,4.19,5.18,8.38,5.18,4.7,0,8.51-2.82,8.51-6.29C782.59,644.89,779.57,642.32,775.59,641.8Z"/><path class="cls-43" d="M805.28,638c-7.45,0-13.51,4.49-13.51,10s6.06,10,13.51,10,13.53-4.49,13.53-10S812.74,638,805.28,638Z"/><path class="cls-34" d="M805.28,639.51c-6.33,0-11.48,3.81-11.48,8.49s5.15,8.49,11.48,8.49,11.49-3.81,11.49-8.49S811.62,639.51,805.28,639.51Z"/><ellipse class="cls-48" cx="805.28" cy="648" rx="9.78" ry="7.23"/><path class="cls-10" d="M806.78,641.8c3,.78,5.2,2.91,5.2,5.41,0,3.17-3.47,5.74-7.76,5.74-3.39,0-6.26-1.6-7.32-3.85.72,2.95,4.19,5.18,8.37,5.18,4.7,0,8.51-2.82,8.51-6.29C813.78,644.89,810.76,642.32,806.78,641.8Z"/><path class="cls-43" d="M836.48,638C829,638,823,642.49,823,648s6.07,10,13.52,10S850,653.51,850,648,843.93,638,836.48,638Z"/><path class="cls-34" d="M836.48,639.51c-6.33,0-11.48,3.81-11.48,8.49s5.15,8.49,11.48,8.49S848,652.69,848,648,842.81,639.51,836.48,639.51Z"/><ellipse class="cls-49" cx="836.48" cy="648" rx="9.78" ry="7.23"/><path class="cls-10" d="M838,641.8c3,.78,5.2,2.91,5.2,5.41,0,3.17-3.47,5.74-7.76,5.74-3.38,0-6.26-1.6-7.32-3.85.72,2.95,4.19,5.18,8.37,5.18,4.7,0,8.51-2.82,8.51-6.29C845,644.89,842,642.32,838,641.8Z"/></g></svg>