<svg id="Content" xmlns="http://www.w3.org/2000/svg" viewBox="0 0 485 356.5"><defs><style>.cls-1{fill:#fff;stroke-width:15px;}.cls-1,.cls-9{stroke:#000;stroke-linecap:round;stroke-linejoin:round;}.cls-2{fill:#7fb2ff;}.cls-3{fill:#578476;}.cls-4{fill:#fff6c7;}.cls-5{fill:#bde9f4;}.cls-6{fill:#ffa440;}.cls-7{fill:#46665a;}.cls-8{fill:#7e7e84;opacity:0.3;}.cls-9{stroke-width:5px;}</style></defs><title>webappicon</title><rect class="cls-1" x="7.5" y="7.5" width="470" height="246"/><rect class="cls-2" x="10.5" y="7.5" width="467" height="242"/><rect class="cls-3" x="7.5" y="7.5" width="114" height="242"/><rect class="cls-4" x="148.5" y="34.5" width="116" height="14" rx="4.5" ry="4.5"/><rect class="cls-5" x="165.5" y="59.5" width="90" height="11" rx="5.5" ry="5.5"/><rect class="cls-5" x="261.5" y="59.5" width="69" height="11" rx="5.5" ry="5.5"/><rect class="cls-5" x="335.5" y="59.5" width="102" height="11" rx="5.5" ry="5.5"/><rect class="cls-5" x="165.5" y="77.5" width="74" height="11" rx="5.5" ry="5.5"/><rect class="cls-5" x="245.5" y="77.5" width="101" height="11" rx="5.5" ry="5.5"/><rect class="cls-5" x="352.5" y="77.5" width="85" height="11" rx="5.5" ry="5.5"/><rect class="cls-5" x="165.5" y="95.5" width="90" height="11" rx="5.5" ry="5.5"/><rect class="cls-5" x="261.5" y="95.5" width="90" height="11" rx="5.5" ry="5.5"/><rect class="cls-5" x="356.5" y="95.5" width="81" height="11" rx="5.5" ry="5.5"/><rect class="cls-6" x="148.5" y="113.5" width="89" height="13" rx="6.5" ry="6.5"/><rect class="cls-5" x="165.5" y="133.5" width="105" height="11" rx="5.5" ry="5.5"/><rect class="cls-5" x="275.5" y="133.5" width="52" height="11" rx="5.5" ry="5.5"/><rect class="cls-5" x="332.5" y="133.5" width="105" height="11" rx="5.5" ry="5.5"/><rect class="cls-5" x="165.5" y="151.5" width="90" height="11" rx="5.5" ry="5.5"/><rect class="cls-5" x="261.5" y="151.5" width="90" height="11" rx="5.5" ry="5.5"/><rect class="cls-5" x="356.5" y="151.5" width="81" height="11" rx="5.5" ry="5.5"/><rect class="cls-5" x="165.5" y="169.5" width="59" height="11" rx="5.5" ry="5.5"/><rect class="cls-5" x="230.5" y="169.5" width="90" height="11" rx="5.5" ry="5.5"/><rect class="cls-5" x="327.5" y="169.5" width="110" height="11" rx="5.5" ry="5.5"/><rect class="cls-6" x="150.5" y="187.5" width="111" height="14" rx="7" ry="7"/><rect class="cls-4" x="152.5" y="208.5" width="72" height="14" rx="4.5" ry="4.5"/><rect class="cls-7" x="19.5" y="34.5" width="63" height="10" rx="5" ry="5"/><rect class="cls-7" x="45.5" y="48.5" width="46" height="10" rx="5" ry="5"/><rect class="cls-7" x="28.5" y="64.5" width="46" height="10" rx="5" ry="5"/><rect class="cls-7" x="41.5" y="78.5" width="46" height="10" rx="5" ry="5"/><rect class="cls-7" x="36.5" y="95.5" width="63" height="10" rx="5" ry="5"/><rect class="cls-7" x="44.5" y="112.5" width="41" height="10" rx="5" ry="5"/><rect class="cls-7" x="19.5" y="129.5" width="72" height="10" rx="5" ry="5"/><rect class="cls-7" x="33.5" y="146.5" width="63" height="10" rx="5" ry="5"/><rect class="cls-7" x="23.5" y="163.5" width="51" height="10" rx="5" ry="5"/><ellipse class="cls-7" cx="41" cy="216.68" rx="24.5" ry="23.52"/><ellipse class="cls-8" cx="251.5" cy="328" rx="210" ry="28.5"/><circle class="cls-4" cx="41.5" cy="216.5" r="17"/><polygon class="cls-9" points="335.47 328.5 291.3 253 203.83 253.5 161.1 328.5 335.47 328.5"/></svg>